<svg xmlns="http://www.w3.org/2000/svg" viewBox="0 0 107 128">
  <path d="M40.67 127.17a17.06 17.06 0 0 1-3-.29c.55 0 1.13.05 1.72.05a17.65 17.65 0 0 0 7.47-1.43 11.35 11.35 0 0 1-6.15 1.67m17.92-1.57c-5.86 0-8.75-2.81-8.78-2.84l-.34-.34-.33.34c-2.17 2.12-5.47 3.2-9.79 3.2a30.66 30.66 0 0 1-7.44-1l-.33.91a22.13 22.13 0 0 0 9.09 2.24 11.37 11.37 0 0 0 8.73-3.53 13.71 13.71 0 0 0 7.72 2.74 7.52 7.52 0 0 0 4-1l-.32-.89a20.32 20.32 0 0 1-2.18.12M28.22 86.63h.07c.62 0 1-.18 1.19-.54a.78.78 0 0 0 .05-.14.6.6 0 0 1 .07.5c-.12.2-.64.33-1.07.33a8.66 8.66 0 0 1-.95 0 3.87 3.87 0 0 0 .67-.1m.25-3.33l-.16-.36-.1-.39h.52a.76.76 0 0 0-.11.14 1 1 0 0 0-.15.58m0 4.45a2.28 2.28 0 0 0 1.91-.81 1.56 1.56 0 0 0-.11-1.56l-.82-1.77a.79.79 0 0 1-.07-.34 1.59 1.59 0 0 1 .34 0 1.67 1.67 0 0 1 .84.16l.7-.63-.58-1.08-2.93-.14-.68.68.27 1 1.06 2.24.05.1a.86.86 0 0 1-.25 0h-.25a3.82 3.82 0 0 1-.79.08 2.7 2.7 0 0 1-1.44-.36l-.29-.19-.78.63.06.3c0 .16.46 1.61 3.69 1.61M33.15 85.51l1-1.21a1.08 1.08 0 0 0 .34-1 .82.82 0 0 0-.42-.48h.1a1.31 1.31 0 0 1 .69.68.7.7 0 0 1-.11.61l-1.15 1.14a1.33 1.33 0 0 0-.71 1.11c0 .42.38.75 1 1l.4.15a7.58 7.58 0 0 1-.81-.13 1.59 1.59 0 0 1-.94-.54l-.06-.14-.13-.07s0-.33.8-1.09m.14 2.79a6.52 6.52 0 0 0 1.55.18 6.78 6.78 0 0 0 1.28-.12l.6-.14-.53-1.06-2-.75a1.53 1.53 0 0 1-.33-.15 1 1 0 0 1 .25-.19l1.38-1.39a1.72 1.72 0 0 0 .3-1.5 2.44 2.44 0 0 0-1.35-1.35h-.11l-1.91.2-.1.07c-.38.25-.54.54-.47.85s.62.57.78.59l.09-.28v.28a5.59 5.59 0 0 1 .74.11l-1 1.19c-.79.71-1.15 1.34-1.07 1.9a1 1 0 0 0 .37.66 2.55 2.55 0 0 0 1.53.91"/>
  <path d="M100.86 106.3a3.06 3.06 0 0 0-.37-.91c-.8-1.33-2.59-2.23-5.32-2.68a16.29 16.29 0 0 0 1.37-2.27 19.92 19.92 0 0 0 1.67-5.14l6.58 1.7c-.43 1.53-2.06 6.89-3.93 9.28m-.9.74l-11.87 1.48a18 18 0 0 0 6.56-5.06v.16c3.28.48 4.54 1.5 5 2.27A2 2 0 0 1 100 107m-9.45-6.78a13.87 13.87 0 0 0-5.55-2.4l-2-17.61 13.27 1.61c.25.79 3.25 10.4-.59 18.19a15.52 15.52 0 0 1-2.57 3.72 7.45 7.45 0 0 0-2.59-3.47m-5.21.29l-.2-1.71a15.45 15.45 0 0 1 1.69.51zm-2.21-10l-.1-1.61.18 1.55zm.13 2.31l-.08-1.31h.15l.15 1.29zm.14 2.43l-.08-1.44.27-.07.16 1.43zm.13 2.2l-.07-1.22.4-.09.17 1.17zm.1 1.83v-.78l.56.11.06.55zm.92 2.85l.08.73-.78.27-.07-1.17.51-.12zm-.83-1.17v-.71l.63-.13.07.68zm-2.78 5.57A59.47 59.47 0 0 1 69.12 108l.54-1.92a12.1 12.1 0 0 0 3 .31 36.51 36.51 0 0 0 12.06-2.53l.11 1a10.59 10.59 0 0 1-3.9 1.73m1.72 3l-.1-.07-.24.13c-.43.23-.88.44-1.33.63l.72-2.88a15.87 15.87 0 0 0 2.37-.89zm-2.65.99c-.51.18-1 .34-1.57.49l.51-3.1c.58-.1 1.15-.22 1.7-.36l-.73 3zm-4.61 1.07l.58-3.21c.65-.08 1.31-.18 2-.28l-.52 3.15c-.67.14-1.34.25-2 .34m-1 .12c-.72.07-1.45.1-2.18.12l.56-3.13c.69-.05 1.41-.12 2.17-.2l-.58 3.2zm10.15 3.14l-.27.11h.14a7.88 7.88 0 0 1-5.91 2.21 23.06 23.06 0 0 1-9.27-2.49l-.27-.14-.25.18a9.25 9.25 0 0 1-5.79 1.73 22.5 22.5 0 0 1-8.39-2l-.24-.11-.23.14c-3.76 2.38-9.5 2.74-12.59 2.74-1.85 0-3.11-.12-3.12-.12H38.24q-.53.13-1.17.24a26 26 0 0 1-5.5-1.93c4.29-.59 7.8-5.6 8.86-7.27l2.87 1.29a3.4 3.4 0 0 0 1.46.36 2.26 2.26 0 0 0 1.15-.29 3.28 3.28 0 0 0 1.4-2.27c2.77 1.2 22.8 9.5 35.24 3.17a5.08 5.08 0 0 1 2.06 4.35m-.33 1.62q.29-.23.57-.48a2.25 2.25 0 0 1-.57.48m-8.48 1.55l-.93-.27c.45.1.92.19 1.4.26h-.47m-6.58-2L69 116l-.17.06a5 5 0 0 1-.64.21 6.84 6.84 0 0 0 .86-.53 26.51 26.51 0 0 0 2.45 1c-.89-.27-1.74-.53-2.34-.74m-14.27-.27a24.9 24.9 0 0 0 4.52 1.35 14.25 14.25 0 0 1-4.52-1.35m-13.26 3h-.52c.2 0 .4 0 .6-.07l-.05-.37a39.26 39.26 0 0 0 5.59-.41 21.58 21.58 0 0 1-5.62.87m-9.47-1h-2.55v-2.05a28.18 28.18 0 0 0 4.63 2.06h-2.12m-7.54-6.72a1.22 1.22 0 0 1-.35 0l-.64-.21v1.63a12.39 12.39 0 0 1-5-8c13.35-.22 20.7 3.44 20.78 3.47l.44-.86c-.31-.16-7.66-3.84-21.42-3.58-.48-2-1.07-5.93.38-7l1.57-.49c.94 0 12-.06 20.9 5.23.21.57.83 2.92-1.36 6-.05.08-4.89 8.4-10.17 7.33v.13l.13-6.89-.85.85c-2.11 2.12-3.62 2.44-4.33 2.44m4 6.49h-2l-1.83-.16H24.59v-5.39c.75 0 2.23-.25 4.19-1.93zm-2 1l2.05.13c-.89 0-1.55-.07-2.05-.13m-9.18-15l-2.6-1.67s-1.79-1.11-1.85-2.63c0-.92.6-1.86 1.88-2.78l.11-.1a6.44 6.44 0 0 0 .64-5.12 16.91 16.91 0 0 0 6-3.6 2.08 2.08 0 0 1-.82 2.69c-2.05 1.79-2.22 2.45-2.1 2.89a.64.64 0 0 0 .49.47h.15c8.81-1 16.21 2.26 19.77 3.83a6.56 6.56 0 0 0 2.46.69 1.37 1.37 0 0 0 1-.37c.63-.63.2-1.68.12-1.86l-1-1.69a4.89 4.89 0 0 1-.73-3.71 6.68 6.68 0 0 0 2.72 1.91 5.45 5.45 0 0 0 2.52 6c-.1.42-.22 1-.38 1.92-.69 3.59.15 4.92.65 5.37-.09 1.56-.47 2.57-1.11 2.94a2 2 0 0 1-1.71-.09l-2.78-1.25c2.53-3.74 1.24-6.62 1.19-6.75l-.06-.13-.13-.08c-9.53-5.72-21.51-5.44-21.63-5.44l-1.79.52-.12.06c-2.16 1.39-1.33 6-.89 7.88m4.92-16.59l-.15.07a19.86 19.86 0 0 0 4.75-8.6c2.46-.27 4-.87 4.65-1.8a1.47 1.47 0 0 0 .28-.71l1.54.28c0 .28.45 1.67 4.68 3.77.06 2.34.36 8.5 2 9.62l.28.39-.21-.07a5.78 5.78 0 0 0 .7 5l1 1.62c.1.23.17.61.06.73s-.4.37-2.42-.53c-3.55-1.57-10.85-4.8-19.65-4a11.4 11.4 0 0 1 1.5-1.55 3 3 0 0 0 1-4.16m8.85-17a6.88 6.88 0 0 0 2.57-2.22 15 15 0 0 0 1.67 2.78c-1.42 1.07-1.83 3.56-2 4.68l-1.25-.23a14.77 14.77 0 0 0-1-5m13.1-9.36A124.3 124.3 0 0 1 41 79.63l-.19.66h.69A16.72 16.72 0 0 1 50.79 82l-3.21 4C45 84 42 81.55 39.1 79.21v.05l-.22-.11c-.37-.17-.69-.34-1-.5zm1.17-16.41l8.94 33.2-.18.24.28.15.58 2.22-.2.36.34.12 1.58 5.89a15.69 15.69 0 0 0-13.76-7.16h-1c.87-3.41 4.7-19.51 3.39-35.1m12.3 28.61l-2.63 3.59-1.1-4.09zm.53 1.67l-.67 1.16-.48-.34.77-1zm.45 3.15l-.43 1-1-.5L58 77zm.38-2.65l.61.37-.59 1.37-.72-.52zm-.27-2h.27l-.36.63-.27-.17zm1.3-1.77l-.51.9h-.13zm.52 2l-.54 1.24-.54-.32.57-1zm1.6-3.8v.1l-1.2 2.8h-.4zm.81.7h.31L63 72.48l-.89-.12zm2.06-12.14l-.44 2.83-1 .33a25.16 25.16 0 0 0 1.42-3.16m2 30.8a46.9 46.9 0 0 1-4 7.47L61.82 98l3.53-21.55zm-1.03-14.09h-.06l-.06-.72zM63 31.74l6.49-1.56-2.67 17A39.42 39.42 0 0 0 63 31.74m8.3 5.94l-1.1 25.81c-.68.1-1.37.23-2.09.4l-.62-2.3zm1.34-8.25l8.37-2 .26.34c.14.2 13.27 19.9 1.39 41.17a8.31 8.31 0 0 0-4-4.51 13 13 0 0 0-7.48-1.09l1.47-33.3h-.07zM83.19 70c7.64-13.22 5.75-25.9 3-34 4.14 8.73 7.63 22.47-3 34m-1.83 32.56l1.43-.34.07 1.28c-.53.17-1 .33-1.53.47zm-.81-28.27l.22-.3-.08.38zm.1 4.69l.27-1.2v1.23zm-.14 18.25a30.1 30.1 0 0 0-3.92 0l3.85-17.33h.43zm-9.13 3.33l.19 1-1.47.11-.13-.88zm-.4-2l.21 1-1.37.18-.15-1 1.33-.17m-1.45-.77l-.17-1.15 1.2-.16.23 1.13-1.26.18m-6.36 5.25l2.61-4.25.11.59 2.81-.49.92 6.16-.17-.06zm5.66 5.95c.52 0 1.58 0 2.93-.13l-.56 3.06c-1 0-2.1-.05-3.16-.13zm-22.08-8.23l.31-1.57h.19l21.46 6.66-.59 2.08zm6.15-17.27l-1.23 1.64-1.27-.9-.56.79 1.24.88-1.32 1.75-1.43-1.09 3.29-4.09a13.75 13.75 0 0 1 2 1.61zM54 86.8l-1.54-1.1 1.22-1.61a14.77 14.77 0 0 1 1.17 1.21zm-1.59 2.78a78 78 0 0 1-1.86-1.34l1.33-1.76 1.64 1.16zm5.63 1.22l1 3.52-1.08 5.94c-2.85-3-2.64-7.78-2.63-8v-.13L54.75 91l-.09-.32h-.35a4.5 4.5 0 0 1-1.08-.58l2.28-4a19.27 19.27 0 0 1 2.54 4.69m4.42 12l-1.22-.38v-.14l-.17-.06.27-1.63 1.79.56-.93 1.51zm1.92-3.6l-.68 1.1-2-.62.7-.94zm1.15-1.85l-.61 1-1.8-.43.73-1.08zm1-1.58l-.46.73-1.62-.49.55-.73zm1.08-1.75l-.55.9-1.45-.48.77-1zm0-2.33l.21 1.37-.83-.41zm-.33-11.25l.49 2.4-.49.07-.37-2.42zm-.52-2.39v.15h.09l.26 1.28h-.32l-.22-1.44zm-.47-2.54l.31 1.58h-.19l-.24-1.59zm.48-2.5l-.48-2.38.06-.38L67 73zm.29 1.39L67 74h.25l.06.3zm.45.89l.36 1.59-.3.06-.32-1.59zM69 77.52l-.76-3.34 1.07.14-.51.85.73-.4a13.49 13.49 0 0 1 .22 2.84zm.67 9.8l-.24-1.17L70 86l.15.7zm.38 6.74l.3 1.47-1.15.15-.2-1.43zm-.33-1.6l.14.65-.6.11zm0-7.38h-.21l.12-.42zm0-6.48c0 .45-.06.94-.13 1.46l-.35-1.53h.19zm-1.27 12l.71-1 .29 1.43-.75 1.21zm-.31 4.4l.44 2.9c-.81.13-1.65.28-2.52.44zm-.09-8.53l-.15.41-.05-.36zm0-2.68l.32 1.61-.62.15-.25-1.68zm.08-4.45l-.2-1h.35l.21.92zm.83 9l-.66.9v-.39c.19-.47.38-.92.54-1.37zm-.15-5.64l-.49-2.4h.39l.52 2.27v.13zm1.61 5.3l.26 1.15-.47.76L70 88.6zm4.31-7.47h-.06l-.07.2-3.71 5-.7-3a25.42 25.42 0 0 0 .54-3.92l4.88.59zm-.33 2.08l.67-.91.19.07-.54.88zm-1.45 2l.78-1.05h.42l-.75 1.21zm.28 15.74l.24 1-.93.07-.2-1zm-.43-1.91l.22 1-.87.11-.2-1 .85-.09m-.49-2.11l.27 1.16-.82.09-.23-1.15zm-.57-2.49l.36 1.54-.77.1-.33-1.6zm-.21-1l-.7.12-.34-1.68.5-.8zm.18-6.59l.65-.9.52.24-.6 1zm.06 1.14l-.37.59-.2-.89zm3.6 10.78l-.8 3.63-.8-3.5c.54 0 1.09-.1 1.6-.13m2.95-19.49l2.19-3.52-.82 3.68zm-2.65 2.2l.64-.87-.56.89zm2.08-1.29l1.72.21-3.88 17.4c-.65 0-1.34.08-2 .14l-1.84-8zm3.91 8.66l.09-4.13.25 4.02zm0 2.71v-1.71l.4-.09.09 1.65zm0 2.33V92l.6-.18.08 1.3zm0 2.42v-1.41l.79-.21.09 1.4zm0 1.57v-.57l1-.23.05.91-1-.11m1.22 3.19v.74l-1.36.33v-.81zm-1.27-.74v-.86l1.15-.23v.85zM75.88 64.5a9 9 0 0 1 2.31.79A7.33 7.33 0 0 1 82 70.1a32.45 32.45 0 0 0-10.6 2.65l4.84-8zm-7.52.34a18.43 18.43 0 0 1 7-.45l-5.64 9.36v-.35L68 73.17l-.71-3.1 2.48.13zm-6.66 8.45l1.11.15-3.36 18.44c-.14-.44-.29-.89-.48-1.39l-1.82-6.79zm-4.51 7.89l-.45 1-.35-1.32zm-.31-2.27l1.07.54-.37.84-1.23-.45zm-.88-.44l-.19.33-.13-.49zm-.3-1.24l.9-1.23.57.41-.68 1.2zM44.4 91.72c-2.1-.45-3.51-2.78-3.52-2.8l-.08-.12-.13-.07c-.8-.4-1.39-4.41-1.53-8.23 5 4.12 12.73 10.25 14.82 11.08l.36.72c0 .89 0 6 3.33 9l-10.29-3.16a.45.45 0 0 0-.41-.44.49.49 0 0 0-.32 0 4.42 4.42 0 0 1-1.86-5.32l.21-.54zm2.78 13.48s-.91-.58-.56-3.48l21.27 7.08-.8 2.88a73.54 73.54 0 0 1-19.68-5.28v-1.07zm23.07-2.64l1.52-.12.26 1.28.94-.2-.23-1.16 1-.07.18.77.52-.13a.44.44 0 0 0 .34.32h.11a.49.49 0 0 0 .47-.38l1.06-4.77a39.79 39.79 0 0 1 4.12 0l-.13 6h.32c-5.37 1.49-8.63 1.36-10.16 1.12h.12zm10.83-30v.3l-.06.29-.5-.37-4.18 5.66-5.51-.67a13 13 0 0 0-.31-3.32l-.55.16.49-.27a31.4 31.4 0 0 1 11-3.19.46.46 0 0 0-.07.14l-.06.27h-.28zm15.55 4.31l-1.55 3.74.4.16-12.61-1.56-.77-6.77.21-1 .37.39.85-.85a16.73 16.73 0 0 1 13.1 5.81M88.91 116c.28 1-1 2.51-1.54 3a7.87 7.87 0 0 1-3.27 1.45c2.9-1.1 3.67-2.46 3.84-2.85a1.68 1.68 0 0 0 .39-1.65 2.09 2.09 0 0 0-.94-1c.68.19 1.36.52 1.52 1.09M10.57 123h-.37a8.77 8.77 0 0 1-1.85-.17c.75 0 2.29.14 3.86.14a20 20 0 0 0 3.51-.24 12.27 12.27 0 0 1-5.15.27m8.63-6.23a11.18 11.18 0 0 1-3.07-.49 9.78 9.78 0 0 0 2.39.31 6.86 6.86 0 0 0 4.05-1.23 3.94 3.94 0 0 1-3.37 1.41m-5.75-1.46l-.41-.18-.21.39a8.08 8.08 0 0 1-1.07 1.48 4.76 4.76 0 0 0 .89-2.12c.27.15.6.33 1 .51l-.2-.08m-5.55 3.78h-.12a6.22 6.22 0 0 1-4.86-.58 17.09 17.09 0 0 0 3.85.51 6.55 6.55 0 0 0 2.77-.51 3.93 3.93 0 0 0 1.07-.51 4.91 4.91 0 0 1-2.71 1.06M57.76 21c.9.78 2.83 1.78 6.17 1.31a4.31 4.31 0 0 1 .81-.07 3.23 3.23 0 0 1 2.62 1.1 8.14 8.14 0 0 0-4.67 0h-.13l-.09.1a3 3 0 0 1-2.06.83 4.58 4.58 0 0 1-3.06-1.5zm1.67 46a27.7 27.7 0 0 0 2.1-2.46l.24 1.46c-.76.31-1.54.66-2.34 1M79.11 2.93a15.42 15.42 0 0 1 4.59.92 3.06 3.06 0 0 0 2.75 1.5 6.44 6.44 0 0 0 2.77-.75l7.28 3.29h-.56c-2.19 0-2.65-1.11-2.68-1.15v-.08h-.07a9.81 9.81 0 0 0-2.89-1.12 1.72 1.72 0 0 0-.31 0 1 1 0 0 0-.83.31.7.7 0 0 0-.17.47l-.9 1.35a2.44 2.44 0 0 0-.5.14 3.66 3.66 0 0 0-.93-.42 11.82 11.82 0 0 1-2.8-1.42A7.59 7.59 0 0 0 80 4.71a4.46 4.46 0 0 0-2.29.59l.35-2.3a5.71 5.71 0 0 1 1-.09M95 27.54l.47 1.08.93 1.4 2.45-1.52h.85l2 1.72h-.43A7.41 7.41 0 0 0 99 29.8a3.16 3.16 0 0 0-3 1.49l-.31.08-.31-.1-.84-.56-.72-1.46-1.29-.25H90l-.12-2.38a14.72 14.72 0 0 1 5.13.88m4.2 18c5.62 9.33 2.58 20.15 0 26.21zm-.83 48.83c.11-.79.18-1.57.21-2.33l7.62-6.5a.49.49 0 0 0-.63-.75l-7 5.95a31.78 31.78 0 0 0-1.27-8.7l1.16.14.11-1-2.58-.33L97.63 77c.52-.85 11.69-19.33 1.29-33.61l-.61.45h-.09v.07l-.08.06a1 1 0 0 1 .08.11v29.8c-.45.91-.84 1.62-1.1 2.07a17.5 17.5 0 0 0-12.72-5.87c7.77-8.81 7.75-18.79 5.49-27l10.47.17v-1l-10.66-.11v.29a45.41 45.41 0 0 0-1.24-3.63l.73-8.8h3.26l.75.12.62 1.24 1.11.75.75.26 1-.26.09-.24c0-.05.44-1.1 2.15-1.1a6.87 6.87 0 0 1 2.08.38h3.31L100 27.53h-1.44l-1.89 1.17-.36-.54-.57-1.34-.16-.08a14.71 14.71 0 0 0-6.23-1.06h-.5V26h-.32l-.86 11a53.17 53.17 0 0 0-5.6-9.78l1.54-.36-.22-.95-9.39 2.2 2.43-5.45h-2.19l2.81-16.19.47-.47a2.85 2.85 0 0 1 .62-.4 3.67 3.67 0 0 1 1-.12 9.64 9.64 0 0 1 4.72 1.63l3 1.41 1-.25.51-.18s1.11-1.83 1.11-1.85c.43 0 1.69-.53 2.54 1 .25.45 1 1.4 3.38 1.4a10 10 0 0 0 1.4-.1l1.77-.23-.33-.14-9.1-4.09-.67-.31-.23.16a4.83 4.83 0 0 1-2.38.78 2.52 2.52 0 0 1-.48-.06 2.58 2.58 0 0 1-1.31-1.12v-.08h-.08l-.47-.16h-.08a11.33 11.33 0 0 0-4.71-1h-1l.13-2.15h-1.4L71.1 22.92l-1.79.55.53 4.7-.15 1-10.15 2.4.22 1 2.31-.57c.27.5 8.28 16 .32 29.57l-1.28.43.2 1.24a28.35 28.35 0 0 1-5 5.44l.62.74.37-.34v.07a62.72 62.72 0 0 1 4.55-2.12v.1l-3.5 4.77-4.66-.63-4.65-17.3 10.11 1.61.16-1-10.43-1.68v.1l-.07-.26 3.8-15.08 7 .45.06-1-6.84-.43 3.68-14.62-.23 1.08.18.19a5.68 5.68 0 0 0 3.94 2 4.07 4.07 0 0 0 2.66-1 9.09 9.09 0 0 1 2.25-.32 3.31 3.31 0 0 1 2.77 1l.88-.37a4 4 0 0 0-4.23-3.32 5.1 5.1 0 0 0-1 .09 11.48 11.48 0 0 1-1.51.1c-3.25 0-4.31-1.66-4.35-1.72l-.55-.93.44-1.72-.95-.24-5 19.8-5.36-.34-.06 1 5.18.34-3.28 13.1-4.18-15.5c-.21-.87-.43-1.73-.68-2.55l-.93.25.68 2.53a68.37 68.37 0 0 1 1.6 17l-5.06-1-.18 1 5.17 1v-.27c0 1.49-.11 3-.21 4.41l-.2-.07L37 78.17c-2.3-1.36-2.56-2.18-2.56-2.2v-.22c0-1.11.47-4.1 2-4.69l.67-.28-.51-.52a13.08 13.08 0 0 1-2.32-4l-.68-1.65-.25 1.78s-.22 1.47-2.9 2.82l-.4.19.16.42c.59 1.53 1.4 4.31 1.08 5.29l-.16.49h-.1a.59.59 0 0 1-.16.39c-.3.39-1.26 1.08-4.25 1.37h-.37l-.07.37c0 .09-1.9 9.82-11.51 12.72v.06l-.17.06c1 3 0 4.71-.22 5C12.74 96.82 12 98 12 99.27c.07 2 2.22 3.37 2.3 3.41l3.39 2.18a13 13 0 0 0 5.52 8.52 6 6 0 0 1-4.73 2.19 12.32 12.32 0 0 1-6-1.94l-.71-.48v.86a3.7 3.7 0 0 1-2.56 3.62 5.87 5.87 0 0 1-2.45.44 20 20 0 0 1-5.37-1L0 116.62l.85 1.22a5.91 5.91 0 0 0 5.06 2.49 7.75 7.75 0 0 0 2.09-.27c2.91-.18 4.83-2.75 5.46-3.73a15.68 15.68 0 0 0 5.74 1.38 4.69 4.69 0 0 0 4.42-2.24v2.26a41.78 41.78 0 0 0-7.72 3.92 15.61 15.61 0 0 1-3.69.31c-2.14 0-4.23-.18-4.25-.18h-.24l-.16.19a1 1 0 0 0-.27 1.12c.17.37.65.87 2.91.87h.35a20.72 20.72 0 0 0 2.26.14c3.55 0 4.69-1.2 5-1.62a26.83 26.83 0 0 1 7.46-3.2 15.24 15.24 0 0 0 4.4.42c3.47 0 7.7-.37 8.42-.44a10.83 10.83 0 0 0 3.56.54c5.22 0 11.09-2.73 12.34-3.34a15.78 15.78 0 0 0 7.75 1.85 23 23 0 0 0 7.26-1.24c2.07.68 6.49 2 6.54 2H75.69c5.84-.17 9.24-1.11 10.11-2.8a2 2 0 0 0 .22-.84c.51.15 1.25.47 1.4.89.07.21 0 .47-.27.78l-.09.16s-1.17 3.06-10.58 3.69v1s.92.08 2.23.08c3 0 7.15-.38 9.31-2.22.24-.22 2.32-2.22 1.83-4-.26-.94-1.18-1.58-2.72-1.89h-.15l-1.24.54-.23-.35a6.09 6.09 0 0 0-2.22-4.1l.17.09 2.17-4.71h-.08.29l-.4-3.55 2.39-1.92a10.28 10.28 0 0 1 2.05 1.08 6.18 6.18 0 0 1 2.44 3.51A19.26 19.26 0 0 1 85 108.7a.49.49 0 0 0 .15 1h.21v.21l14.25-1.75-.27.77 1.27-1c2.47-1.86 4.57-8.83 5.06-10.6l1 .27.24-.94z"/>
</svg>